<svg display="none" width="0" height="0" version="1.1" xmlns="http://www.w3.org/2000/svg" xmlns:xlink="http://www.w3.org/1999/xlink">
<defs>
<symbol id="icon-home" viewBox="0 0 1024 1024">
	<title>home</title>
	<path class="path1" d="M1024 608l-192-192v-288h-128v160l-192-192-512 512v32h128v320h320v-192h128v192h320v-320h128z"></path>
</symbol>
<symbol id="icon-pencil" viewBox="0 0 1024 1024">
	<title>pencil</title>
	<path class="path1" d="M864 0c88.364 0 160 71.634 160 160 0 36.020-11.91 69.258-32 96l-64 64-224-224 64-64c26.742-20.090 59.978-32 96-32zM64 736l-64 288 288-64 592-592-224-224-592 592zM715.578 363.578l-448 448-55.156-55.156 448-448 55.156 55.156z"></path>
</symbol>
<symbol id="icon-image" viewBox="0 0 1024 1024">
	<title>image</title>
	<path class="path1" d="M896 192h-768v640h768v-640zM1024 64v0 896h-1024v-896h1024zM832 768h-640v-128l192-320 263 320 185-128v64zM640 352c0-53.019 42.981-96 96-96s96 42.981 96 96c0 53.019-42.981 96-96 96s-96-42.981-96-96z"></path>
</symbol>
<symbol id="icon-music" viewBox="0 0 1024 1024">
	<title>music</title>
	<path class="path1" d="M320 192l704-192v736c0 88.366-100.29 160-224 160s-224-71.634-224-160c0-88.366 100.29-160 224-160 34.358 0 66.902 5.532 96 15.406v-329.588l-448 122.182v480c0 88.366-100.288 160-224 160s-224-71.634-224-160c0-88.366 100.288-160 224-160 34.358 0 66.902 5.532 96 15.406v-527.406z"></path>
</symbol>
<symbol id="icon-file" viewBox="0 0 1024 1024">
	<title>file</title>
	<path class="path1" d="M892.118 188.118l-120.234-120.236c-37.338-37.336-111.084-67.882-163.884-67.882h-448c-52.8 0-96 43.2-96 96v832c0 52.8 43.2 96 96 96h704c52.8 0 96-43.2 96-96v-576c0-52.8-30.546-126.546-67.882-163.882zM640 135.562c2.196 0.804 4.452 1.68 6.758 2.636 18.060 7.482 30.598 16.176 34.616 20.194l120.236 120.238c4.018 4.018 12.712 16.554 20.194 34.614 0.956 2.306 1.832 4.562 2.636 6.756h-184.44v-184.438zM832 896h-640v-768h384v256h256v512z"></path>
</symbol>
<symbol id="icon-cart" viewBox="0 0 1024 1024">
	<title>cart</title>
	<path class="path1" d="M847.218 576c35.2 0 71.912-27.692 81.582-61.538l92.836-324.926c9.67-33.844-11.218-61.536-46.418-61.536h-655.218c0-70.692-57.308-128-128-128h-192v128h192v544c0 53.020 42.98 96 96 96h608c35.346 0 64-28.654 64-64s-28.654-64-64-64h-576v-64h527.218zM320 256h578.806l-54.858 192h-523.948v-192zM384 944c0 44-36 80-80 80h-32c-44 0-80-36-80-80v-32c0-44 36-80 80-80h32c44 0 80 36 80 80v32zM960 944c0 44-36 80-80 80h-32c-44 0-80-36-80-80v-32c0-44 36-80 80-80h32c44 0 80 36 80 80v32z"></path>
</symbol>
<symbol id="icon-credit" viewBox="0 0 1024 1024">
	<title>credit</title>
	<path class="path1" d="M928 128h-832c-52.8 0-96 43.2-96 96v576c0 52.8 43.2 96 96 96h832c52.8 0 96-43.2 96-96v-576c0-52.8-43.2-96-96-96zM96 192h832c17.346 0 32 14.654 32 32v96h-896v-96c0-17.346 14.654-32 32-32zM928 832h-832c-17.346 0-32-14.654-32-32v-288h896v288c0 17.346-14.654 32-32 32zM128 640h64v128h-64zM256 640h64v128h-64zM384 640h64v128h-64z"></path>
</symbol>
<symbol id="icon-clock" viewBox="0 0 1024 1024">
	<title>clock</title>
	<path class="path1" d="M658.744 749.256l-210.744-210.746v-282.51h128v229.49l173.256 173.254zM512 0c-282.77 0-512 229.23-512 512s229.23 512 512 512 512-229.23 512-512-229.23-512-512-512zM512 896c-212.078 0-384-171.922-384-384s171.922-384 384-384c212.078 0 384 171.922 384 384s-171.922 384-384 384z"></path>
</symbol>
<symbol id="icon-heart" viewBox="0 0 1024 1024">
	<title>heart</title>
	<path class="path1" d="M1024 358.156c0 86.362-37.218 164.030-96.49 217.844h0.49l-320 320c-32 32-64 64-96 64s-64-32-96-64l-319.51-320c-59.272-53.814-96.49-131.482-96.49-217.844 0-162.458 131.698-294.156 294.156-294.156 86.362 0 164.030 37.218 217.844 96.49 53.814-59.272 131.482-96.49 217.844-96.49 162.456 0 294.156 131.698 294.156 294.156z"></path>
</symbol>
<symbol id="icon-arrow-right" viewBox="0 0 1024 1024">
	<title>arrow-right</title>
	<path class="path1" d="M1024 512l-512-512v320h-511.998l-0.002 384h512v320z"></path>
</symbol>
</defs>
</svg>
